<?xml version="1.0" encoding="UTF-8" standalone="no"?>
<!-- Created with Inkscape (http://www.inkscape.org/) -->

<svg
   xmlns:dc="http://purl.org/dc/elements/1.1/"
   xmlns:cc="http://creativecommons.org/ns#"
   xmlns:rdf="http://www.w3.org/1999/02/22-rdf-syntax-ns#"
   xmlns:svg="http://www.w3.org/2000/svg"
   xmlns="http://www.w3.org/2000/svg"
   xmlns:sodipodi="http://sodipodi.sourceforge.net/DTD/sodipodi-0.dtd"
   xmlns:inkscape="http://www.inkscape.org/namespaces/inkscape"
   width="297mm"
   height="210mm"
   viewBox="0 0 1052.3622 744.09448"
   id="svg2"
   version="1.1"
   inkscape:version="0.91 r13725"
   sodipodi:docname="beans.svg">
  <defs
     id="defs4" />
  <sodipodi:namedview
     id="base"
     pagecolor="#ffffff"
     bordercolor="#666666"
     borderopacity="1.0"
     inkscape:pageopacity="0.0"
     inkscape:pageshadow="2"
     inkscape:zoom="0.35"
     inkscape:cx="375"
     inkscape:cy="520"
     inkscape:document-units="px"
     inkscape:current-layer="layer1"
     showgrid="false"
     inkscape:window-width="1366"
     inkscape:window-height="705"
     inkscape:window-x="-8"
     inkscape:window-y="-8"
     inkscape:window-maximized="1" />
  <metadata
     id="metadata7">
    <rdf:RDF>
      <cc:Work
         rdf:about="">
        <dc:format>image/svg+xml</dc:format>
        <dc:type
           rdf:resource="http://purl.org/dc/dcmitype/StillImage" />
        <dc:title></dc:title>
      </cc:Work>
    </rdf:RDF>
  </metadata>
  <g
     inkscape:label="Layer 1"
     inkscape:groupmode="layer"
     id="layer1"
     transform="translate(0,-308.26772)">
    <path
       style="fill:#000000"
       d="m 2.8571586,1031.241 0,-25.9676 34.7035704,-0.028 c 19.08697,-0.015 65.146081,-0.7496 102.353581,-1.6322 408.9879,-9.70169 621.75258,-13.43319 765.53132,-13.42599 50.4169,0 92.8516,-0.4289 94.2993,-0.9587 2.04887,-0.7497 2.42307,-2.8852 1.68817,-9.6351 -0.5192,-4.7695 -1.267,-9.0082 -1.66167,-9.4194 -0.3946,-0.4111 -7.3822,0.1715 -15.5279,1.2946 -14.1819,1.9555 -15.1678,1.877 -23.2305,-1.8491 -4.631,-2.1402 -11.8993,-6.3046 -16.1516,-9.2541 -4.2523,-2.9495 -8.9326,-5.3628 -10.4008,-5.3628 -1.4681,0 -6.8725,-2.2621 -12.0097,-5.027 -5.1372,-2.7649 -11.0167,-5.027 -13.0655,-5.027 -4.6925,0 -19.7863,7.1642 -26.5812,12.6166 -6.7664,5.4296 -22.8485,5.9419 -28.498,0.9077 -5.4179,-4.8276 -23.6071,-13.5243 -28.2863,-13.5243 -2.5443,0 -5.5162,-1.9036 -7.8484,-5.0271 -2.0645,-2.7648 -4.5556,-5.027 -5.5357,-5.027 -0.9802,0 -5.76532,-3.77855 -10.6336,-8.3968 -10.27961,-9.75157 -13.59481,-10.84276 -28.82256,-9.48668 -6.18021,0.55036 -16.45582,0.53588 -22.83469,-0.0322 -11.22509,-0.99962 -11.92879,-1.3425 -21.88852,-10.66512 -5.65979,-5.29776 -11.01454,-9.89448 -11.89942,-10.21493 -2.20699,-0.79925 -10.84268,-17.41024 -10.84268,-20.85618 0,-1.5347 -1.49674,-5.14153 -3.3261,-8.01518 -1.82934,-2.87363 -4.28024,-10.73299 -5.44642,-17.46521 -1.95616,-11.29274 -1.83469,-12.8736 1.56895,-20.41875 4.58267,-10.15878 4.60957,-13.51082 0.17501,-21.80031 -4.44126,-8.30196 -4.41742,-8.89656 0.87251,-21.76902 4.22421,-10.27914 4.27306,-10.82536 1.31786,-14.73926 -5.4433,-7.20912 -10.68898,-16.21315 -10.83444,-18.59686 -0.0778,-1.27675 1.63746,-4.04659 3.81193,-6.15523 11.04384,-10.70943 12.02805,-13.12515 12.39346,-30.41936 l 0.34583,-16.36688 -5.7897,-2.60852 c -9.05816,-4.08108 -14.41747,-8.50605 -14.41747,-11.9039 0,-1.99952 -1.25964,-3.11664 -3.51428,-3.11664 -3.01558,0 -3.51984,-1.12954 -3.55337,-7.95946 -0.0427,-8.70024 -2.5125,-12.60611 -11.82163,-18.69541 -3.1409,-2.05453 -5.71072,-4.9309 -5.71072,-6.39192 0,-1.46104 3.95357,-6.64293 8.78572,-11.51533 9.86216,-9.94429 10.9968,-14.87279 4.71889,-20.49715 -7.12161,-6.3802 -16.99969,-5.0225 -36.34747,4.99585 -17.2754,8.94526 -22.5829,8.24065 -16.85068,-2.23705 2.78593,-5.09227 2.09497,-6.40223 -3.37699,-6.40223 -2.10521,0 -5.2405,-1.48879 -6.9673,-3.30842 -2.96389,-3.12323 -2.97294,-3.55103 -0.16165,-7.64271 1.6379,-2.38388 2.73051,-4.96712 2.42802,-5.74055 -1.30739,-3.34279 -18.40448,-15.14616 -21.93906,-15.14616 -2.13514,0 -4.42837,-0.84292 -5.09605,-1.87316 -0.76558,-1.18131 -4.04176,-1.50353 -8.87032,-0.87239 -10.83426,1.41615 -16.25296,-1.04332 -19.46178,-8.83344 -3.02629,-7.34701 -2.47221,-7.14804 -31.28277,-11.23329 -4.83214,-0.68519 -13.7081,-1.09227 -19.72435,-0.90465 l -10.93862,0.34115 -11.27546,11.02032 c -8.67976,8.48337 -12.07203,10.77923 -14.73567,9.97302 -7.12194,-2.15563 -39.29896,9.46307 -41.40282,14.95001 -1.15001,2.9992 2.09316,30.82926 3.98566,34.20146 2.81607,5.01793 2.23788,13.17709 -1.05844,14.93628 -2.11382,1.1281 -2.61578,2.90125 -1.85215,6.54246 0.66649,3.17792 0.0824,6.30905 -1.60571,8.60739 -1.63857,2.23092 -2.19212,5.04761 -1.44745,7.36514 2.41409,7.5129 11.76364,19.30609 20.12876,25.38965 8.57976,6.23965 13.68511,15.17457 11.61301,20.32402 -1.29311,3.21356 -7.09762,3.12758 -9.94769,-0.14729 -3.82146,-4.39108 -11.98811,-9.31777 -16.83482,-10.15589 -3.87628,-0.67032 -4.41604,-0.31732 -3.37099,2.20449 0.68435,1.65143 1.67584,5.45327 2.20328,8.44854 0.80642,4.57957 0.41924,5.44594 -2.43378,5.44594 -1.86602,0 -4.24219,-0.81004 -5.28038,-1.80009 -3.46211,-3.3016 -11.08184,-3.0011 -13.68241,0.5396 -1.57296,2.14158 -5.16337,3.61217 -10.11983,4.14493 -6.44474,0.69273 -8.55874,0.12216 -13.12612,-3.54288 -5.49026,-4.40555 -15.13498,-5.93621 -17.21183,-2.73157 -1.43374,2.21226 2.32231,15.11974 4.39981,15.11974 4.03709,0 16.68928,29.69495 13.87207,32.55803 -1.60722,1.6334 -8.77844,-1.12428 -14.34337,-5.51574 -4.27732,-3.37536 -3.87683,0.23277 0.43929,3.95771 3.90369,3.369 4.44712,8.33392 1.67364,15.29052 -1.51694,3.80486 -1.20791,5.43293 1.75715,9.25746 1.97879,2.55236 3.59778,5.34132 3.59778,6.19769 0,0.85637 2.84714,2.06639 6.32698,2.68895 3.47983,0.62255 9.06157,2.37549 12.40385,3.89541 5.29396,2.40748 6.29115,2.44758 7.74023,0.31133 2.81437,-4.14903 1.0739,-8.94803 -3.6282,-10.00404 -2.45278,-0.55084 -4.40275,-2.19406 -4.41526,-3.72068 -0.0123,-1.50379 -0.60537,-3.29008 -1.31786,-3.96955 -1.86752,-1.78095 -1.59592,-7.37955 0.35799,-7.37955 0.90939,0 2.14213,0.75405 2.73942,1.67567 0.59728,0.92162 2.4354,1.67568 4.08469,1.67568 4.29317,0 15.32218,6.07848 14.82568,8.17094 -0.23003,0.96938 0.56069,1.43825 1.75714,1.04195 1.19644,-0.39629 4.31367,2.23169 6.92717,5.83997 3.37946,4.66577 6.72223,7.06647 11.57441,8.31246 8.33845,2.14121 11.25009,7.14313 9.20113,15.80673 -1.4379,6.0799 -0.42129,12.84442 3.25824,21.68028 2.39342,5.74741 2.58973,16.22875 0.30397,16.22875 -2.81287,0 -15.46012,-18.14636 -16.65389,-23.89512 -0.84281,-4.05864 -2.67217,-6.11903 -7.24663,-8.16181 -3.46449,-1.54712 -6.55334,-2.06278 -7.11987,-1.18861 -0.55036,0.84921 -2.53435,1.07982 -4.40889,0.51245 -3.12522,-0.94592 -3.31112,-0.42979 -2.23875,6.21562 0.6432,3.98596 3.03416,10.80389 5.31324,15.15096 2.27909,4.34705 4.14379,8.65173 4.14379,9.56591 0,0.9142 -3.92244,-0.6631 -8.71654,-3.50509 -11.93046,-7.07255 -16.38661,-6.7487 -24.01025,1.74488 -6.51888,7.26274 -9.83134,8.19926 -17.38777,4.91596 -4.25262,-1.8478 -4.51289,-2.56415 -3.50062,-9.63514 0.87704,-6.12638 0.27967,-9.10307 -3.01696,-15.03332 -2.26081,-4.06691 -5.26934,-7.98588 -6.68563,-8.70884 -15.55671,-7.94089 -21.96375,-9.94176 -28.7692,-8.98438 -5.18032,0.72873 -9.40301,0.0804 -15.09876,-2.31793 -10.24103,-4.31239 -19.61467,-5.90629 -26.98265,-4.58814 -4.51656,0.80803 -7.28091,2.98911 -11.80939,9.31756 -3.25185,4.54442 -7.70133,9.17557 -9.88772,10.29143 -3.63539,1.8554 -4.61358,1.32545 -11.44138,-6.19864 -11.11289,-12.24614 -17.18614,-17.69031 -26.43062,-23.69295 -7.54834,-4.9013 -8.33396,-6.02809 -8.33396,-11.95321 0,-5.19947 0.74394,-6.72732 3.62557,-7.44595 3.59546,-0.89664 3.59046,-0.95705 -0.60502,-7.27882 -4.32983,-6.52421 -8.44,-8.5036 -18.26802,-8.79763 -3.92064,-0.1173 -6.65644,-1.53921 -9.18743,-4.77514 -1.98234,-2.53446 -5.18547,-6.12742 -7.11808,-7.98436 -3.28083,-3.1524 -3.40979,-4.51842 -1.94486,-20.60173 0.86293,-9.47402 2.50486,-18.30086 3.64873,-19.61522 3.66171,-4.20754 2.60341,-13.37022 -2.69852,-23.36343 -7.7917,-14.68604 -16.72638,-23.28413 -31.36177,-30.18034 -11.85191,-5.58463 -13.55767,-7.07045 -21.02852,-18.3171 -4.7477,-7.14721 -11.1246,-14.21829 -15.3271,-16.99559 -12.33005,-8.14857 -22.734991,-20.43143 -22.734991,-26.83827 0,-10.95557 -3.82307,-22.65195 -9.87558,-30.21354 -5.06208,-6.32424 -6.14632,-9.22016 -6.71633,-17.93903 -0.86692,-13.26018 -2.36394,-19.77237 -5.27576,-22.95016 -1.27416,-1.39054 -2.85257,-4.20609 -3.50758,-6.25677 -2.07332,-6.49113 -32.39897,-31.14731 -43.67943,-35.51344 -5.57868,-2.15924 -10.50918,-3.57674 -10.95668,-3.14999 -0.4475,0.42675 -2.03585,10.13953 -3.52967,21.58392 -1.49383,11.44442 -4.96424,37.77424 -7.7120204,58.51073 l -4.99597,37.7027 -0.19692,-139.5 -0.19692,-139.5 527.1429014,0 527.14294,0 0,371.99982 0,371.99975 -527.14294,0 -527.1429014,-0.01 0,-25.9676 z M 987.29653,967.42091 c 6.5234,-0.633 11.8607,-1.7209 11.8607,-2.4177 0,-0.6968 -1.9423,-13.2231 -4.3162,-27.8362 -28.3102,-174.26897 -29.4153,-181.59437 -36.1127,-239.38009 -5.0974,-43.98173 -6.8939,-58.22382 -7.8329,-62.09754 -1.1848,-4.88785 -17.5665,-9.52605 -32.8609,-9.30404 -6.5831,0.0955 -12.5706,0.34366 -13.3054,0.55133 -3.4091,0.9634 -21.8569,-9.35996 -26.0137,-14.5572 -2.5451,-3.18201 -6.3362,-6.24464 -8.4249,-6.80584 -10.8553,-2.91666 -31.1199,-11.50596 -33.794,-14.32383 -1.6805,-1.7708 -4.2471,-3.21964 -5.7037,-3.21964 -4.5103,0 -17.5987,-8.20657 -18.7882,-11.7803 -1.2536,-3.76682 -13.98676,-18.43176 -17.90064,-20.61648 -1.37626,-0.76821 -9.46021,-2.01918 -17.96433,-2.77992 -22.7129,-2.03179 -35.79286,-5.92571 -39.38513,-11.72501 -3.55814,-5.74418 -3.77501,-11.07766 -0.49918,-12.27642 1.46751,-0.53702 2.46428,-3.4841 2.52176,-7.45582 0.0835,-5.77102 -0.85432,-7.32454 -7.73088,-12.80613 -4.30425,-3.43111 -7.40137,-6.89344 -6.88249,-7.6941 0.51889,-0.80064 -0.35773,-4.55685 -1.94804,-8.34713 -2.72492,-6.4945 -2.7113,-7.01702 0.23634,-9.07247 1.72028,-1.19957 2.60015,-2.99521 1.95524,-3.99029 -0.64489,-0.99508 0.36667,-2.27511 2.2479,-2.84451 4.29372,-1.29959 30.01632,-25.05298 30.01632,-27.7184 0,-1.08364 -1.47768,-3.9718 -3.28375,-6.41813 -5.40578,-7.32214 -5.90178,-9.71347 -7.37599,-35.56107 -0.16464,-2.88565 1.23995,-2.83983 -306.50457,-9.99808 -67.43663,-1.5686 -152.2304,-4.20859 -183.5414,-5.71443 -8.20908,-0.3948 -13.80412,-0.0947 -12.50534,0.67078 4.32773,2.55069 -6.87028,3.28245 -43.80328,2.86246 -19.81178,-0.2253 -37.49007,0.25603 -39.28507,1.06963 -2.02354,0.91718 -3.96193,0.81336 -5.10133,-0.27322 -1.20198,-1.14624 -2.92338,-1.19838 -4.97615,-0.15071 -2.03268,1.03742 -3.52276,1.0088 -4.22919,-0.0812 -0.99113,-1.52932 -12.27094,-1.14898 -25.91898,0.87394 -3.63846,0.5393 -4.83214,0.0265 -4.83214,-2.07566 0,-2.46286 -0.27826,-2.429 -2.36104,0.28731 -1.64015,2.13904 -3.78615,2.8194 -7.02857,2.22831 -2.56714,-0.46798 -4.66754,-0.1128 -4.66754,0.78929 0,1.02881 -4.916671,1.20081 -13.190381,0.46145 -11.31458,-1.01111 -14.25073,-0.69075 -20.64643,2.25268 -4.89564,2.25306 -11.83067,3.59723 -20.19521,3.91429 -7.00654,0.26559 -12.73922,0.96775 -12.73929,1.56036 -6e-5,0.59261 -1.01693,1.44958 -2.25971,1.90437 -1.6283,0.59586 -2.14182,-0.87554 -1.83807,-5.26667 l 0.42152,-6.09355 -1.55781,6.7027 c -0.8568,3.68649 -3.23083,19.14459 -5.27563,34.35135 -2.0448,15.20676 -4.12815,28.96824 -4.62967,30.58108 -0.57002,1.83312 0.0321,2.93243 1.60618,2.93243 1.38493,0 8.06296,2.6454 14.84009,5.87866 13.21101,6.30277 37.77565,27.57019 40.04705,34.67171 0.67817,2.12026 2.47166,5.19943 3.98553,6.84257 1.51388,1.64313 2.97907,5.73108 3.25599,9.0843 0.27691,3.35323 1.28454,6.84162 2.23917,7.752 0.95462,0.91036 1.28299,4.80483 0.7297,8.65438 -0.88619,6.16566 -0.34331,7.71895 4.55864,13.04311 6.1527,6.68264 8.19134,12.01705 10.556431,27.62249 1.86011,12.2735 7.08792,19.54635 21.8649,30.41815 6.15202,4.5262 12.17868,11.14643 16.82976,18.48733 6.649,10.49427 8.28824,11.91931 19.90364,17.30289 17.63126,8.17184 31.5805,23.98936 36.36007,41.2299 1.78072,6.42334 1.55173,8.56996 -1.83567,17.2078 -2.7192,6.93395 -3.58159,11.92087 -2.89978,16.76845 0.56107,3.98915 0.10807,8.21626 -1.07391,10.02116 -1.71462,2.61825 -1.26776,3.80838 2.77071,7.37946 2.64828,2.34176 4.81505,4.95192 4.81505,5.80034 0,3.85703 7.97704,8.37687 14.82776,8.4015 9.11593,0.0328 10.47782,0.94052 15.84006,10.55795 l 4.4277,7.94124 -4.36919,1.89844 c -2.40305,1.04415 -4.36919,3.18268 -4.36919,4.75232 0,3.37139 7.65208,11.04414 14.26836,14.30693 2.5724,1.26856 9.94975,7.79652 16.39411,14.50656 l 11.71701,12.20009 5.23624,-5.86486 c 14.55928,-16.30717 12.59509,-15.08108 24.15973,-15.08108 6.53682,0 14.13906,1.30015 19.59599,3.35135 4.90369,1.84324 12.73797,3.35135 17.40947,3.35135 5.67031,0 12.58322,1.72256 20.79646,5.18209 11.23515,4.73238 12.65777,5.9048 16.39305,13.51002 2.35844,4.80192 3.95113,10.94419 3.7617,14.50711 l -0.32855,6.17916 2.66862,-4.60811 c 3.32023,-5.73326 6.65557,-5.881 9.26923,-0.41061 1.84642,3.86458 1.55521,4.38535 -3.67153,6.566 l -5.67702,2.36852 4.74935,0.13674 c 3.50248,0.10087 6.19801,-1.58241 10.26739,-6.41144 7.04968,-8.36566 10.43267,-9.10783 20.14401,-4.41926 4.33909,2.09488 7.88926,3.50436 7.88926,3.13217 0,-0.37216 -1.65247,-3.76563 -3.67217,-7.54101 -3.49184,-6.52724 -3.6894,-10.08847 -1.35474,-24.42108 0.47241,-2.90019 5.02691,-2.64716 5.02691,0.27929 0,1.30562 -0.9884,2.75421 -2.19643,3.21906 -1.35239,0.52039 -1.05462,0.89601 0.77486,0.97747 1.63422,0.0727 3.49183,-0.67088 4.12802,-1.65254 0.77536,-1.19638 2.11302,-0.97718 4.05728,0.66484 1.5953,1.34733 4.48198,2.72301 6.41484,3.05709 2.36633,0.409 4.37525,3.0655 6.15,8.13246 2.86142,8.16942 10.5057,20.03851 12.92728,20.07186 0.82822,0.0117 1.02589,-1.172 0.43929,-2.62982 -0.58662,-1.45781 -1.07867,-3.90848 -1.09347,-5.44595 -0.0213,-2.20747 -0.34461,-2.31722 -1.5375,-0.52189 -1.16202,1.74885 -1.81597,1.80231 -2.83394,0.23158 -0.72782,-1.12305 -0.4745,-2.5422 0.56296,-3.15365 1.28522,-0.75749 1.36371,-3.23403 0.24633,-7.77212 -0.90198,-3.66322 -1.17792,-9.77886 -0.61321,-13.59035 1.29278,-8.72575 -1.48196,-14.01601 -7.35138,-14.01601 -2.88703,0 -6.82697,-2.43159 -11.45112,-7.06719 -3.87735,-3.88697 -6.54128,-5.80367 -5.91985,-4.25935 0.82644,2.05382 -0.0659,3.09403 -3.3229,3.87359 -2.44902,0.58617 -5.28842,0.57323 -6.30976,-0.0287 -1.15001,-0.67786 -1.85702,0.85701 -1.85702,4.03136 0,4.21699 -0.70962,5.12593 -4.00187,5.12593 -2.20105,0 -5.56159,-1.03473 -7.46786,-2.29942 -3.37758,-2.24074 -14.5082,-5.34168 -17.02188,-4.74219 -0.69074,0.16472 -3.33494,-3.08363 -5.876,-7.21859 -3.98379,-6.48267 -4.45463,-8.66539 -3.41868,-15.84844 1.00017,-6.93492 0.58635,-9.1541 -2.47043,-13.24791 -2.01952,-2.70466 -3.67185,-5.36669 -3.67185,-5.91564 0,-1.88959 5.87792,-0.99421 8.64736,1.31723 1.52574,1.27343 4.66085,2.86494 6.96691,3.5367 3.82094,1.11303 4.09244,0.83992 3.06098,-3.07926 -2.07849,-7.89735 -8.77716,-20.3951 -13.71422,-25.58664 -2.06672,-2.17324 -3.5077,-6.38535 -3.7262,-10.89189 l -0.35626,-7.34828 7.52981,-0.51815 c 6.00246,-0.41305 8.61389,0.35172 12.87412,3.77027 2.93935,2.35863 6.9043,4.28842 8.81101,4.28842 4.40945,0 13.83506,-4.59575 13.83506,-6.74573 0,-2.60284 11.64798,-1.88741 14.04109,0.86242 3.88571,4.4649 5.15055,0.95349 2.57361,-7.1448 -1.38573,-4.35481 -2.52807,-8.05894 -2.53854,-8.2314 -0.0105,-0.17246 2.94617,0.14042 6.57027,0.6951 6.62227,1.01374 14.69302,5.48578 19.70677,10.91963 1.74584,1.89215 3.52679,2.41547 5.05055,1.48408 3.80452,-2.32552 -3.33014,-13.59424 -12.64672,-19.97471 -4.41331,-3.02245 -9.21168,-7.54264 -10.66303,-10.04484 -6.55031,-11.2931 -8.28331,-16.19571 -7.18754,-20.33332 0.62987,-2.37835 1.28948,-7.17933 1.46581,-10.66884 0.17633,-3.48953 1.16898,-6.88277 2.2059,-7.54054 3.52534,-2.23633 4.02844,-6.71963 1.61295,-14.37355 -1.32576,-4.20097 -2.65523,-14.162 -2.95437,-22.13565 l -0.54389,-14.49753 13.17857,-6.5441 c 9.26907,-4.60276 16.33423,-6.84422 23.81597,-7.55572 9.21746,-0.87658 11.6142,-1.88053 17.9551,-7.52102 4.02472,-3.58017 8.14304,-7.98009 9.15182,-9.7776 1.04746,-1.86647 4.59113,-3.76144 8.26222,-4.41821 7.57255,-1.35475 45.84771,2.39082 47.29794,4.62854 0.54914,0.84734 2.45088,1.10098 4.22608,0.56368 3.70139,-1.12031 5.98019,0.94174 10.18801,9.21898 2.90266,5.70986 3.28329,5.87827 14.40287,6.37226 6.28179,0.27908 12.17261,1.22165 13.09072,2.09459 0.91811,0.87296 3.35992,1.5872 5.42625,1.5872 2.08596,0 8.37732,4.01175 14.145,9.01968 10.28941,8.93403 10.35681,9.05277 7.09993,12.50516 -4.27903,4.53587 -2.56515,8.44258 4.27624,9.74741 6.90863,1.31767 8.03114,4.09188 4.01864,9.93183 l -3.16743,4.60997 5.9936,-1.14313 c 3.29649,-0.62873 7.23155,-2.18136 8.74461,-3.45027 1.51306,-1.26892 5.26621,-2.81654 8.34032,-3.43917 3.07412,-0.62262 6.53147,-2.21464 7.68302,-3.53784 2.46355,-2.83078 17.74159,-3.28581 22.84644,-0.68046 1.85932,0.94895 4.50094,3.79145 5.87028,6.31668 3.10783,5.73123 0.32386,13.29669 -6.45065,17.52971 -2.45632,1.53484 -5.66722,5.0868 -7.13535,7.89326 -2.56423,4.90183 -2.49317,5.21751 1.80573,8.02154 9.87052,6.43815 12.84123,10.65889 12.84123,18.24464 0,6.17873 0.53809,7.29586 3.51429,7.29586 2.51521,0 3.51429,1.11712 3.51429,3.92947 0,4.6645 3.98495,8.4342 12.50418,11.82873 9.2376,3.68076 10.42917,5.73168 8.38092,14.42512 -0.96552,4.09792 -1.35073,8.92673 -0.85606,10.73068 2.10135,7.66296 -1.04076,17.11919 -8.11654,24.42691 -6.89294,7.11889 -6.9789,7.36233 -4.81143,13.62532 1.21378,3.50731 4.06617,8.04264 6.33863,10.07852 4.88705,4.37829 5.14073,8.02637 1.2361,17.77649 -2.73746,6.83557 -2.72279,7.35112 0.26843,9.43695 1.9806,1.38111 2.63473,3.02315 1.74885,4.3901 -1.11411,1.7191 -1.88307,1.57358 -3.61404,-0.68391 -4.12427,-5.37878 -4.70034,0.58964 -0.67787,7.0232 4.47172,7.15212 4.77906,16.44364 0.78738,23.80481 -3.34231,6.16367 -3.34497,8.3968 -0.01,8.3968 1.46428,0 2.63571,1.48949 2.63571,3.35135 0,1.9259 -1.17143,3.35135 -2.75412,3.35135 -1.76913,0 -2.45596,1.04875 -1.92046,2.93243 0.45851,1.61284 1.3539,5.1946 1.98976,7.95946 0.63585,2.76487 3.08148,8.93911 5.43474,13.72055 2.35327,4.78146 4.27866,9.87132 4.27866,11.31081 0,1.43951 0.83738,2.61729 1.86085,2.61729 1.02346,0 1.44414,-0.64297 0.93485,-1.42882 -0.50929,-0.78584 0.0603,-2.71516 1.26586,-4.28736 2.05196,-2.67611 2.44092,-2.65258 6.09372,0.3686 5.32212,4.40185 4.89749,6.91715 -1.36957,8.11244 -6.6012,1.25904 -6.77053,4.94891 -0.38747,8.44244 2.68618,1.47017 6.83743,5.15725 9.225,8.19349 3.6465,4.63718 10.11407,9.0857 13.20943,9.0857 0.43774,0 0.7959,-1.50811 0.7959,-3.35136 0,-4.4069 0.52163,-4.27178 6.86625,1.77868 l 5.37944,5.13004 16.38875,-1.14724 c 18.8934,-1.32256 22.46398,-0.1709 33.66146,10.85717 3.82029,3.76245 7.84079,6.84081 8.93459,6.84081 1.0937,0 4.1022,2.26217 6.6855,5.02705 2.5833,2.7648 5.8138,5.027 7.1791,5.027 3.4422,0 26.6368,11.3908 29.206,14.343 2.9902,3.4359 19.8336,3.2584 22.8791,-0.2411 2.8139,-3.2334 25.0755,-14.1019 28.8844,-14.1019 1.5059,0 6.8071,1.9664 11.7805,4.3697 4.9734,2.4034 10.8111,4.5549 12.9728,4.7812 2.1617,0.2263 8.1181,3.3498 13.2365,6.9411 11.8023,8.2809 20.7662,12.3768 25.2528,11.5386 1.9328,-0.3611 8.8516,-1.1744 15.375,-1.8074 z M 712.42306,872.5298 c 0.93705,-0.89361 3.17147,-1.32806 4.96537,-0.96545 2.41575,0.48833 1.9739,0.9097 -1.70373,1.62476 -3.20647,0.62343 -4.36186,0.38989 -3.26164,-0.65931 z M 437.96767,809.99376 c -0.60089,-1.49331 0.10859,-2.99615 1.68726,-3.57386 3.28122,-1.20074 6.8717,1.77792 5.21831,4.32912 -1.72425,2.66054 -5.70634,2.22502 -6.90557,-0.75526 z m 246.29459,-157.869 c -1.27755,-1.61284 -3.89221,-3.76731 -5.81036,-4.78771 -5.8961,-3.13656 -4.85235,-6.1878 5.68827,-16.62877 5.58401,-5.5312 12.52522,-12.68371 15.42487,-15.89445 7.45094,-8.25029 24.51299,-20.41776 36.89932,-26.31404 11.54828,-5.49733 24.60118,-8.20614 26.3725,-5.47295 0.60832,0.93865 1.87078,1.25592 2.80544,0.70505 0.93468,-0.55088 4.87087,2.02284 8.74711,5.71936 6.26602,5.97551 7.73681,6.61431 13.2606,5.75948 l 6.21287,-0.96145 -1.18138,7.51279 c -1.32842,8.44775 2.27915,13.99975 8.14604,12.53665 1.76981,-0.44135 8.17539,0.64641 14.23449,2.41725 14.814,4.32954 16.0381,4.78678 15.1309,5.65199 -0.4299,0.40995 -5.8804,-0.73311 -12.1123,-2.54016 -6.2318,-1.80705 -13.8439,-3.29131 -16.91575,-3.29835 -5.56969,-0.0134 -10.98712,-3.50843 -11.2421,-7.25412 -0.074,-1.08619 -0.39887,-3.29149 -0.72206,-4.90068 -0.32321,-1.60918 0.13266,-3.35029 1.01301,-3.86917 3.8359,-2.26079 1.20782,-4.17853 -4.36097,-3.18226 -5.25032,0.9393 -6.62985,0.36624 -11.56268,-4.80324 -7.38545,-7.73978 -12.46465,-9.11085 -25.95469,-7.0062 -10.62321,1.65738 -39.09594,20.91243 -52.28532,35.35865 -4.83214,5.29261 -9.97179,10.86533 -11.42143,12.38383 -9.88808,10.35782 -9.6516,9.76681 -4.75875,11.89279 2.4535,1.06605 4.8656,3.41412 5.36024,5.21794 1.21183,4.41917 8.82195,3.48338 9.55255,-1.17467 1.52541,-9.72548 2.2416,-10.89189 6.68781,-10.89189 5.43384,0 11.0416,2.70823 14.81886,7.15666 2.66134,3.13424 3.10955,3.1672 8.29465,0.6102 3.01473,-1.48669 5.97314,-4.18088 6.57428,-5.98709 1.33091,-3.99892 5.15247,-5.25929 18.16552,-5.99118 5.49088,-0.30881 13.14628,-1.71664 17.01199,-3.12852 9.17703,-3.3517 15.69974,-3.36083 18.60192,-0.026 2.51871,2.89414 10.36803,6.2707 11.6765,5.02289 0.43899,-0.41864 -1.55164,-1.91996 -4.42362,-3.33626 -10.21918,-5.03952 -8.4484,-12.77357 2.91392,-12.72692 3.50578,0.0151 11.11843,1.20154 16.91702,2.63808 12.5115,3.09963 14.7594,3.27592 19.129,1.50013 2.4398,-0.99146 3.1011,-0.73585 2.5055,0.96833 -1.0693,3.05911 -8.7261,4.83781 -11.6245,2.70038 -2.7799,-2.0501 -16.22377,-4.67833 -25.82431,-5.04854 -5.81869,-0.22439 -7.10696,0.30584 -7.48397,3.08031 -0.31947,2.35094 1.227,4.10167 5.18051,5.86487 7.61135,3.39451 8.45343,6.7027 1.70614,6.7027 -3.10104,0 -7.4852,-1.76709 -10.61487,-4.27844 -4.49802,-3.60934 -6.36836,-4.09299 -11.95985,-3.09266 -3.6454,0.65217 -8.95414,2.5348 -11.7972,4.18359 -3.37227,1.95572 -6.1419,2.50137 -7.96743,1.56968 -5.25946,-2.68428 -17.8518,0.85947 -22.29572,6.27448 -5.91059,7.20217 -12.23992,8.3039 -17.37132,3.02374 -7.29197,-7.50339 -18.71778,-7.2135 -15.78414,0.40045 2.67068,6.93152 -8.77512,11.78054 -13.55711,5.74348 z M 416.13515,784.62 c 1.80849,-2.18805 -1.53451,-4.36879 -9.46566,-6.17475 -3.9765,-0.90547 -4.68147,-0.54466 -4.4582,2.28172 0.14584,1.84649 1.29072,3.35724 2.54416,3.35724 1.25345,0 3.64885,1.52571 5.32313,3.39047 2.11382,2.3543 3.25467,2.73837 3.73301,1.25675 0.3789,-1.17354 1.4245,-3.02369 2.32356,-4.11143 z M 949.05773,621.96259 c -2.3338,-15.58386 -8.0429,-64.7198 -11.3412,-97.6081 -7.0433,-70.23188 -8.9837,-86.98244 -11.5679,-99.86271 -1.4377,-7.16569 -2.9022,-13.30343 -3.2546,-13.63942 -1.0326,-0.98471 -55.284,-3.7109 -92.4225,-4.64432 -18.8454,-0.47365 -45.13663,-1.18902 -58.42502,-1.5897 -22.27232,-0.67158 -24.16072,-0.4956 -24.16072,2.25156 0,1.63904 0.59303,3.54562 1.31786,4.23684 0.72482,0.69121 1.31785,6.34248 1.31785,12.55836 0,9.83801 0.64721,12.11081 4.99762,17.55003 5.5884,6.98708 5.4046,14.43665 -0.35619,14.43665 -1.75933,0 -4.03465,1.74953 -5.05631,3.88784 -1.02163,2.13831 -6.6806,7.6052 -12.57548,12.14865 -5.89486,4.54345 -10.72089,9.12271 -10.72451,10.17612 -0.004,1.05343 -1.11784,2.32199 -2.4761,2.81904 -2.1049,0.77028 -2.11628,1.84829 -0.0771,7.30089 1.31582,3.51847 2.42713,7.63007 2.46954,9.13691 0.0423,1.50683 2.10678,4.00793 4.58747,5.55798 9.28504,5.80172 11.17868,8.70108 10.11696,15.49004 -0.5483,3.50594 -2.23461,7.31458 -3.74737,8.46364 -2.49583,1.89579 -2.49585,2.59844 -2e-4,7.58925 2.23855,4.4766 4.59834,6.05556 12.68192,8.48556 5.46239,1.64203 15.6401,3.38332 22.61714,3.86955 16.73427,1.16619 29.37835,4.95747 29.37835,8.80899 0,1.60854 2.05193,4.75266 4.55981,6.98697 2.50788,2.23429 5.68708,6.1286 7.06478,8.65403 2.366,4.33686 13.7952,11.32725 18.52,11.32725 1.1936,0 4.1903,1.81272 6.6593,4.02827 2.4689,2.21554 10.8147,6.1007 18.5461,8.63367 9.8124,3.21471 16.1796,6.53238 21.0857,10.98685 3.8658,3.50982 10.9822,8.32197 15.8143,10.69369 8.0539,3.95304 9.9724,4.22284 23.0323,3.23897 11.212,-0.84468 15.3291,-0.5142 19.3286,1.55149 2.7951,1.44363 6.8704,2.65495 9.0563,2.69185 3.5967,0.0607 3.8849,-0.53008 3.0333,-6.21669 z M 220.74289,391.97611 c 0,-0.92162 -0.79072,-1.67568 -1.75714,-1.67568 -0.96643,0 -1.75715,0.75406 -1.75715,1.67568 0,0.92162 0.79072,1.67567 1.75715,1.67567 0.96642,0 1.75714,-0.75405 1.75714,-1.67567 z m -15.81429,-2.54138 c 0,-0.26116 -2.96518,-0.45736 -6.58928,-0.43599 -4.77949,0.0282 -5.63177,0.37114 -3.10307,1.24868 3.05232,1.05925 9.69235,0.50249 9.69235,-0.81269 z m 31.18929,1.38629 c -1.69125,-0.42148 -4.45875,-0.42148 -6.15,0 -1.69125,0.42148 -0.3075,0.76632 3.075,0.76632 3.3825,0 4.76625,-0.34484 3.075,-0.76632 z m -101.9509,-1.53298 c -0.58389,-0.55681 -2.09942,-0.61634 -3.36786,-0.13229 -1.40173,0.53492 -0.98536,0.93198 1.06161,1.01239 1.85232,0.0728 2.89013,-0.32329 2.30625,-0.8801 z m 30.82005,-1.76242 c -1.18964,-0.45901 -3.56179,-0.48695 -5.27143,-0.0621 -1.70964,0.42485 -0.7363,0.80041 2.16299,0.83455 2.89928,0.0342 4.29808,-0.31346 3.10844,-0.77246 z m -44.87719,-1.58893 c -0.58389,-0.55681 -2.09942,-0.61634 -3.36786,-0.13229 -1.40173,0.53492 -0.98537,0.93198 1.06161,1.01239 1.85232,0.0727 2.89013,-0.32329 2.30625,-0.8801 z m 14.05714,0 c -0.58389,-0.55681 -2.09942,-0.61634 -3.36786,-0.13229 -1.40173,0.53492 -0.98536,0.93198 1.06161,1.01239 1.85232,0.0727 2.89013,-0.32329 2.30625,-0.8801 z m 353.89918,603.44642 c -3.25185,-1.3982 -10.3735,-2.5421 -15.82588,-2.5421 -13.49535,0 -20.84516,-2.2937 -28.24017,-8.8128 -9.4451,-8.3265 -17.70596,-13.402 -23.69882,-14.5608 -4.26903,-0.8254 -5.51295,-2.0201 -5.9639,-5.7277 -0.51758,-4.2556 -0.11509,-4.6339 4.39286,-4.1296 4.2503,0.4755 5.04063,-0.088 5.50588,-3.9268 0.45301,-3.7376 -1.00624,-5.5555 -8.78571,-10.9448 -5.13093,-3.5545 -11.50342,-7.77596 -14.1611,-9.38096 -5.21038,-3.14658 -7.01312,-10.70027 -2.12697,-8.91221 2.6525,0.97065 9.59483,-2.06443 9.59483,-4.19472 0,-0.59481 -2.93376,-3.79894 -6.51948,-7.12025 -5.0191,-4.64903 -6.04102,-6.49503 -4.44052,-8.02132 2.11444,-2.01641 3.76308,-1.51977 13.64061,4.10907 4.84539,2.76123 21.91939,19.57091 21.91939,21.58007 0,1.38245 6.31892,10.41322 10.87861,15.54732 0.84447,0.9508 2.29016,0.4678 3.61123,-1.2066 1.79761,-2.2783 3.81979,-2.5648 10.98874,-1.5567 7.574,1.065 8.78571,1.7585 8.78571,5.0287 0,4.282 3.46727,6.9772 9.02479,7.0152 2.55506,0.017 4.65875,-1.7938 6.58929,-5.6735 3.99367,-8.0259 3.57682,-10.6794 -2.43551,-15.50391 -4.21447,-3.38183 -5.27143,-5.55359 -5.27143,-10.83133 0,-7.00354 0.38503,-6.54588 -20.0559,-23.83913 -6.05765,-5.12484 -8.30277,-8.12919 -7.523,-10.06701 2.7399,-6.80902 21.15291,-0.35226 34.03872,11.93612 4.80064,4.57807 10.41108,9.18254 12.46764,10.23215 2.05656,1.04961 6.61975,7.13591 10.14042,13.52513 5.10332,9.26139 7.41633,11.82938 11.40777,12.66541 2.7536,0.57677 8.20836,3.26047 12.12167,5.96387 3.91332,2.7033 7.81586,4.9152 8.67233,4.9152 3.06864,0 5.38158,4.506 6.10535,11.8943 0.40484,4.1327 2.84385,11.3582 5.42003,16.0566 3.04845,5.5597 4.32073,9.9239 3.6437,12.4985 -0.92944,3.5346 -2.10801,3.9853 -11.06448,4.231 -5.51334,0.1513 -18.32674,0.7297 -28.47424,1.2854 -14.47772,0.7929 -19.72295,0.4631 -24.36246,-1.5318 z m 46.83649,-3.4759 c 7.40026,-0.8554 8.90545,-1.5226 7.38253,-3.2725 -1.32495,-1.5225 -1.3466,-2.5319 -0.0705,-3.284 2.70785,-1.5959 5.35686,0.5132 4.21345,3.3547 -0.54441,1.3529 -0.11456,2.4599 0.95531,2.4599 2.91401,0 2.40816,-2.191 -2.65423,-11.4961 -2.52966,-4.6498 -5.00667,-11.9002 -5.5045,-16.1121 -0.49782,-4.2119 -1.62265,-8.0808 -2.49962,-8.5977 -0.90151,-0.5313 -1.09927,0.9419 -0.45502,3.3898 1.00716,3.8268 0.60725,4.3296 -3.44386,4.3296 -4.92894,0 -6.3498,-4.3479 -2.59198,-7.9315 2.69857,-2.5734 -6.20902,-9.9069 -13.67958,-11.2621 -6.13322,-1.1126 -11.96137,-7.52579 -17.20131,-18.92802 -1.80003,-3.91689 -3.88891,-7.12162 -4.64197,-7.12162 -0.75305,0 -6.76099,-4.89919 -13.351,-10.88709 -6.58999,-5.98789 -12.45399,-10.88924 -13.03114,-10.89189 -0.57714,-0.003 -1.80109,1.60183 -2.7199,3.56549 -1.62083,3.46399 -1.76662,3.4787 -4.8967,0.49372 -2.04214,-1.94745 -2.4949,-3.30901 -1.23368,-3.70993 3.4582,-1.09929 2.16449,-3.28339 -2.44232,-4.1232 -7.35414,-1.34066 -6.93915,2.02487 1.05067,8.52081 21.33313,17.34445 21.35752,17.37206 20.38342,23.09644 -0.94385,5.54664 1.55027,9.02816 8.04,11.22296 1.94542,0.65792 3.06082,2.75199 3.03641,5.70063 -0.0418,5.0532 -5.53532,17.8488 -8.3837,19.5276 -2.75516,1.6238 -11.46233,-0.5747 -16.23438,-4.0992 -3.67616,-2.715 -3.93498,-3.4555 -1.70048,-4.8648 1.44965,-0.9143 1.845,-1.7248 0.87857,-1.8011 -0.96642,-0.076 -4.34819,-0.4608 -7.515,-0.8544 -4.89162,-0.6079 -6.01465,-0.072 -7.46457,3.5653 -0.93868,2.3545 -2.53094,3.7951 -3.53834,3.2013 -1.95375,-1.1515 -9.56244,-11.5098 -14.10213,-19.19826 -3.70114,-6.26835 -25.97136,-26.84276 -29.0552,-26.84276 -1.35326,0 0.70238,3.01621 4.5681,6.7027 7.28738,6.94951 8.72685,10.05405 4.66171,10.05405 -1.30176,0 -4.08915,1.4245 -6.19419,3.16554 l -3.82734,3.16552 7.70931,4.86968 c 4.24011,2.67832 10.31636,6.96163 13.5028,9.51853 5.40756,4.3392 5.68492,5.0598 4.16339,10.8162 -1.32291,5.005 -2.36915,6.092 -5.55148,5.7681 -2.15673,-0.2196 -3.92135,0.346 -3.92135,1.2567 0,0.9108 1.67317,1.6559 3.71815,1.6559 3.76076,0 17.35901,8.4858 27.03186,16.8688 6.15151,5.3312 13.87013,7.2861 27.01217,6.8413 5.19243,-0.1757 10.33523,0.3885 11.42849,1.2537 4.08471,3.2329 24.71722,3.6241 48.16909,0.9133 z m -38.28832,-9.9581 c 0,-1.3825 0.79071,-2.5135 1.75714,-2.5135 0.96643,0 1.75715,1.131 1.75715,2.5135 0,1.3824 -0.79072,2.5135 -1.75715,2.5135 -0.96643,0 -1.75714,-1.1311 -1.75714,-2.5135 z m -9.32366,-15.3148 c -1.40384,-1.3388 0.18307,-3.9555 2.39879,-3.9555 0.9094,0 1.65344,1.1311 1.65344,2.5135 0,2.5913 -2.07336,3.3291 -4.05223,1.442 z m -57.44777,-6.469 c 0,-1.3825 0.79071,-2.5135 1.75714,-2.5135 0.96643,0 1.75714,1.131 1.75714,2.5135 0,1.3824 -0.79071,2.5135 -1.75714,2.5135 -0.96643,0 -1.75714,-1.1311 -1.75714,-2.5135 z m 23.44921,-5.0993 c -0.57228,-1.4222 -0.58156,-3.0235 -0.0207,-3.5584 1.77304,-1.6908 6.44286,0.9026 6.44286,3.5781 0,3.3447 -5.07467,3.3292 -6.42222,-0.02 z m -42.77779,-22.45046 c 0,-1.78886 0.6308,-3.62424 1.40176,-4.07863 2.50376,-1.47567 6.16875,1.89163 5.05943,4.64846 -1.5236,3.78635 -6.46119,3.35089 -6.46119,-0.56983 z m 183.72489,55.98296 c -1.87596,-1.3531 -5.60404,-2.4602 -8.28461,-2.4602 -4.92215,0 -8.51169,-3.8418 -8.51169,-9.1098 0,-1.445 -2.87341,-5.2119 -6.38532,-8.3709 -4.17065,-3.7515 -6.0128,-6.6693 -5.31128,-8.4127 2.08564,-5.1831 6.0373,-4.4987 13.3177,2.3067 3.99865,3.7378 9.64521,7.9671 12.54792,9.3986 3.46965,1.711 5.63618,4.312 6.32413,7.5924 0.57557,2.7443 1.73506,5.3956 2.57666,5.8916 2.33438,1.3758 1.82249,5.7382 -0.66624,5.6778 -1.20803,-0.029 -3.73131,-1.1604 -5.60727,-2.5135 z m 0.9739,-7.9062 c -0.79483,-2.0736 -3.73453,-4.9013 -6.53268,-6.2838 -2.79814,-1.3824 -5.40129,-3.2227 -5.78479,-4.0894 -0.99228,-2.2427 -11.23869,-10.9917 -12.8729,-10.9917 -0.75106,0 -1.36555,0.7541 -1.36555,1.6757 0,0.9216 0.9884,1.6808 2.19643,1.6871 2.68307,0.013 10.10357,10.0843 10.10357,13.7114 0,3.3557 3.21677,5.858 8.78572,6.8344 2.41607,0.4236 4.96041,0.8729 5.6541,0.9984 0.69367,0.1255 0.61092,-1.4684 -0.1839,-3.5421 z m 21.67154,-11.1182 c -2.84131,-2.8708 -6.09417,-5.2196 -7.22857,-5.2196 -1.13437,0 -2.5814,-2.253 -3.2156,-5.0066 -1.0765,-4.674 -8.14308,-11.7502 -11.73426,-11.7502 -2.56949,0 -11.99332,-7.1705 -11.97605,-9.11241 0.009,-0.97871 -2.40824,-3.68007 -5.37103,-6.003 -3.69356,-2.89594 -5.02825,-5.11472 -4.24604,-7.05864 1.02854,-2.55606 1.53523,-2.58861 5.14858,-0.33083 2.8063,1.7535 6.15647,2.17657 11.17526,1.41124 11.5882,-1.7671 17.96773,0.34717 28.32887,9.38866 5.26508,4.59448 10.00937,8.32688 10.54286,8.29428 0.53348,-0.033 2.94674,-1.137 5.36281,-2.4542 6.228,-3.39513 8.59138,-3.07793 10.75143,1.4431 1.03971,2.1761 4.58096,5.1801 7.86948,6.6756 3.28851,1.4955 5.9791,3.3596 5.9791,4.1425 0,0.783 2.7245,4.0217 6.05446,7.1973 8.63627,8.2358 6.40277,10.668 -9.94796,10.8326 -7.03964,0.071 -17.19315,0.7231 -22.56331,1.4494 -9.42876,1.2752 -9.94132,1.1413 -14.93003,-3.8992 z m 39.87278,-0.5793 c 4.69844,0 8.54263,-0.6618 8.54263,-1.4707 0,-0.8089 -5.64746,-6.867 -12.54992,-13.4625 -12.52016,-11.9634 -12.56387,-11.987 -18.43976,-9.9608 -6.44084,2.2211 -7.05073,2.0171 -17.33175,-5.79824 -10.96547,-8.33561 -14.95282,-9.75861 -27.65828,-9.87067 -11.56107,-0.10188 -11.74994,-0.0353 -7.90714,2.79072 2.16525,1.59235 4.61447,2.91194 5.4427,2.93244 0.82821,0.0204 1.08301,1.08808 0.5662,2.3724 -1.20565,2.99621 5.29322,8.63425 11.59033,10.05505 3.52045,0.7944 5.93902,3.1856 8.69657,8.5983 2.10095,4.1239 4.71057,7.498 5.79917,7.498 1.0886,0 3.89339,1.943 6.23285,4.3178 4.03758,4.0985 4.86846,4.2589 16.36366,3.158 6.66057,-0.6379 15.95429,-1.1598 20.65274,-1.1598 z m -10.78595,-7.1538 c 0,-4.4517 1.13479,-5.0442 5.0882,-2.657 3.03047,1.8299 1.27393,6.8461 -2.39734,6.8461 -1.69882,0 -2.69086,-1.5444 -2.69086,-4.1891 z m -34.11853,-2.2887 c -0.75692,-1.1679 -0.90169,-2.576 -0.32171,-3.1291 1.57259,-1.4997 3.28721,0.7059 2.43784,3.1359 -0.59518,1.7028 -1.00908,1.7015 -2.11613,-0.01 z m 24.47196,-13.6576 c 0.60702,-0.9366 1.83976,-1.2692 2.73942,-0.7389 2.43723,1.4364 1.98278,2.4419 -1.1037,2.4419 -1.50668,0 -2.24274,-0.7663 -1.63572,-1.703 z m -43.61682,-2.7305 c -2.41404,-2.3022 -1.1619,-5.85779 1.86696,-5.30154 1.69125,0.31061 3.075,1.62266 3.075,2.91564 0,2.6457 -3.10011,4.1423 -4.94196,2.3859 z m -200.81071,22.6486 c -1.84105,-1.9628 -6.31252,-5.3655 -9.93663,-7.5616 -6.16257,-3.7343 -8.92107,-8.9778 -4.72303,-8.9778 3.07817,0 19.93163,5.4153 22.29446,7.1636 1.20803,0.8938 2.19643,4.172 2.19643,7.2848 0,6.7798 -4.52962,7.7432 -9.83123,2.091 z m 3.53646,-7.6314 c -1.73945,-1.2129 -4.6494,-2.2053 -6.46659,-2.2053 -2.93402,0 -3.0094,0.2809 -0.67328,2.5087 1.53563,1.4644 3.90913,2.0409 5.702,1.3848 2.30951,-0.8452 2.80777,-0.469 2.00876,1.5166 -0.58441,1.4524 -0.524,3.159 0.13425,3.7926 0.65824,0.6336 1.48044,-0.1854 1.82715,-1.82 0.3467,-1.6346 -0.79283,-3.9644 -2.53228,-5.1774 z m 148.68517,-28.90596 c -1.00043,-1.78265 -1.81896,-4.8091 -1.81896,-6.72544 0,-3.56371 -0.79938,-5.53658 -5.80659,-14.33066 -10.21263,-17.93628 -10.8215,-19.43068 -8.47907,-20.81127 3.28452,-1.93583 18.04647,3.76239 21.09687,8.14353 2.74201,3.93819 12.54414,8.47855 18.3043,8.47855 1.98035,0 4.99354,-1.20211 6.69598,-2.67138 2.19921,-1.89799 4.69001,-2.33736 8.60352,-1.51766 7.21874,1.512 8.42592,5.06736 3.43927,10.12931 -3.58049,3.63458 -5.42971,4.07506 -16.47587,3.9245 -6.84349,-0.0933 -13.69976,-0.80476 -15.23617,-1.5811 -2.35037,-1.18762 -2.84226,-0.16237 -3.10114,6.46322 -0.52,13.30925 -3.34228,17.41184 -7.22214,10.4984 z m 3.93496,-16.96405 c -1.04729,-3.81913 4.02215,-6.33139 7.01562,-3.47671 3.01394,2.8742 24.98357,2.44252 27.58087,-0.54195 4.63742,-5.32868 -3.24412,-8.15217 -8.96766,-3.21258 -2.72233,2.34943 -4.31795,2.45002 -11.55979,0.72863 -10.06001,-2.39124 -16.30868,-5.9767 -16.30868,-9.35779 0,-3.73527 -2.96936,-2.96736 -4.07182,1.05301 -1.22475,4.46628 -5.18772,3.33194 -6.47103,-1.85223 -0.53653,-2.1674 -2.01887,-4.27238 -3.2941,-4.67775 -1.89067,-0.60101 -1.91445,-0.005 -0.1288,3.22712 1.20436,2.18027 3.65327,5.76246 5.44205,7.9604 1.78877,2.19793 3.25231,5.45652 3.25231,7.24131 0,1.78478 1.18607,4.37615 2.63571,5.75858 1.44965,1.38243 2.71665,4.53329 2.81558,7.00193 0.16482,4.11209 0.29562,4.02195 1.56041,-1.07503 0.75932,-3.0599 0.98402,-7.00952 0.49937,-8.77694 z m 28.51037,-4.92989 c 0.59728,-0.92162 1.83003,-1.67567 2.73942,-1.67567 0.90939,0 1.65343,0.75405 1.65343,1.67567 0,0.92162 -1.23274,1.67568 -2.73942,1.67568 -1.50668,0 -2.25072,-0.75406 -1.65343,-1.67568 z m -225.14984,18.50345 c -3.71231,-5.9931 -12.13261,-9.89252 -15.14936,-7.01564 -3.75853,3.58427 -6.30711,1.93226 -11.71885,-7.59619 -5.46253,-9.61789 -6.86384,-15.62135 -3.64626,-15.62135 0.96643,0 1.75714,1.42754 1.75714,3.17231 0,2.58042 2.04906,3.51136 10.98215,4.98946 8.59894,1.42281 11.82662,2.8253 14.87365,6.46283 2.14032,2.55512 5.97877,7.10144 8.52987,10.10295 4.71639,5.54906 4.73194,10.46164 0.033,10.46164 -1.42534,0 -3.97299,-2.23021 -5.66145,-4.95601 z m 4.62839,-2.58453 c -1.24186,-1.42697 -2.65329,-2.21747 -3.1365,-1.75666 -0.48321,0.46081 0.13741,2.00536 1.37936,3.43234 1.24186,1.42697 2.65328,2.21747 3.1365,1.75666 0.48321,-0.46081 -0.13741,-2.00537 -1.37936,-3.43234 z m -20.25448,-8.60004 c 1.93194,-2.51956 2.47089,-2.50168 6.83783,0.22699 6.57356,4.10747 8.35448,1.44029 2.33653,-3.49923 -6.39105,-5.24575 -12.49194,-5.52606 -10.81819,-0.49704 0.85426,2.56672 0.52212,3.34004 -1.19944,2.7928 -1.30946,-0.41625 -2.38082,-1.76222 -2.38082,-2.99105 0,-1.22882 -1.0541,-2.56931 -2.34245,-2.97885 -1.78459,-0.56728 -1.66923,0.49688 0.48441,4.46848 3.23105,5.95847 4.16327,6.28464 7.08213,2.4779 z M 22.632819,879.17881 c 0.40696,-1.15203 -0.48569,-2.95556 -1.98368,-4.00786 -2.29102,-1.60937 -2.35111,-2.34129 -0.37836,-4.60811 3.20019,-3.67721 4.52918,-3.39801 6.83917,1.43681 1.57793,3.3026 1.43305,4.64753 -0.72204,6.7027 -3.26592,3.11449 -4.7537,3.30327 -3.75509,0.47646 z m 8.47735,-0.55855 c 0.0843,-1.95208 0.50068,-2.34913 1.06161,-1.0124 0.50758,1.20962 0.44516,2.65491 -0.13873,3.21172 -0.58389,0.55681 -0.99918,-0.43289 -0.92289,-2.19932 z m -19.4673,-4.8874 c 0,-3.22567 0.79072,-5.86486 1.75715,-5.86486 0.96642,0 1.75714,2.19932 1.75714,4.88739 0,2.68805 0.98839,5.26772 2.19643,5.73257 1.20803,0.46485 0.41732,0.90472 -1.75714,0.97747 -3.37337,0.11288 -3.95358,-0.72841 -3.95358,-5.73257 z m 36.91606,3.3698 c -1.19426,-1.37227 -2.86345,-2.08717 -3.70931,-1.58864 -0.84586,0.49853 -1.08707,-0.45235 -0.53603,-2.11304 0.90172,-2.71756 0.72583,-2.69662 -1.75911,0.20956 -3.04032,3.55568 -5.58999,2.59921 -3.94811,-1.48108 1.10015,-2.73402 8.17936,-3.6575 8.17936,-1.06699 0,0.83534 1.77911,1.14695 3.95358,0.69248 2.95075,-0.61672 3.3315,-0.40731 1.50109,0.8256 -1.34886,0.90855 -1.96671,2.85911 -1.373,4.33456 1.35004,3.35502 0.50767,3.42347 -2.30847,0.18755 z m 35.53447,-2.53196 c 0,-3.22567 0.36161,-4.54527 0.80358,-2.93243 0.44197,1.61284 0.44197,4.25203 0,5.86486 -0.44197,1.61284 -0.80358,0.29325 -0.80358,-2.93243 z m 5.21519,3.01622 c -3.0774,-2.93473 -2.58317,-6.00743 1.28369,-7.98096 2.52094,-1.28662 4.04155,-1.11213 5.92011,0.67933 1.43083,1.36449 4.152711,2.00544 6.272021,1.47691 2.16998,-0.54114 3.74418,-0.14704 3.74418,0.93739 0,1.02912 -0.59303,1.78181 -1.31785,1.67268 -3.47118,-0.52268 -4.56756,0.41282 -2.19643,1.87411 2.25247,1.38818 2.1886,1.62808 -0.43929,1.65002 -1.69125,0.0134 -3.099041,-0.91691 -3.128431,-2.06894 -0.0297,-1.16245 -0.85048,-0.7896 -1.84446,0.83784 -2.08514,3.414 -5.3048,3.77179 -8.29354,0.92162 z m 6.27447,-4.37771 c 1.0542,-3.01598 -2.57773,-2.38222 -3.80338,0.66367 -0.65669,1.63196 -0.26399,2.39803 1.02004,1.98987 1.14829,-0.36501 2.40079,-1.55912 2.78334,-2.65354 z m -39.00999,3.22704 c -0.52961,-0.8172 0.36248,-2.51382 1.98243,-3.77027 2.56073,-1.98615 2.80056,-1.91567 1.83651,0.5397 -0.60987,1.5533 -0.16487,3.19039 0.98886,3.63797 1.17504,0.45587 0.79079,0.87201 -0.87358,0.94611 -1.63421,0.0727 -3.40461,-0.53632 -3.93422,-1.35351 z m 57.437391,-0.18987 c 0.89809,-3.13157 11.84671,-3.60443 11.84671,-0.51165 0,1.66409 -0.96417,1.69653 -4.51869,0.15215 -3.65378,-1.58759 -4.85655,-1.50054 -6.28378,0.45484 -1.51582,2.07675 -1.66329,2.0633 -1.04424,-0.0953 z m -41.197051,-2.82035 c 1.26844,-0.48405 2.78398,-0.42453 3.36786,0.13221 0.58388,0.55681 -0.45393,0.95286 -2.30625,0.8801 -2.04697,-0.0804 -2.46334,-0.47747 -1.06161,-1.01238 z m 409.281271,-9.90902 c -0.57654,-0.54979 -3.17147,-5.13814 -5.76652,-10.19634 -5.0815,-9.90465 -4.33693,-12.97435 2.90739,-11.98643 4.44128,0.60566 9.41285,7.98983 6.95649,10.3323 -0.82909,0.79065 -0.44579,3.36937 0.85675,5.76357 1.29642,2.383 1.95557,4.95233 1.46477,5.70963 -1.03821,1.602 -4.89681,1.82879 -6.41888,0.37727 z m 1.78094,-6.8041 c -1.35025,-2.6201 -2.14084,-6.0857 -1.75685,-7.70132 0.63892,-2.68826 -3.9078,-6.04391 -5.77564,-4.26267 -0.43509,0.41491 1.22459,4.73894 3.68817,9.60894 2.46359,4.87 4.88876,8.46403 5.38928,7.98671 0.50053,-0.4773 -0.19472,-3.01156 -1.54496,-5.63166 z M 64.376599,844.3739 c 1.04512,-1.86228 1.42163,-4.12444 0.83669,-5.02702 -0.60893,-0.93959 1.32599,-1.64104 4.52675,-1.64104 4.76991,0 5.26928,0.36885 3.40284,2.51351 -1.51133,1.7366 -1.57783,2.51351 -0.21516,2.51351 1.08477,0 1.9723,1.13108 1.9723,2.51352 0,3.02994 -2.05022,3.23943 -4.92,0.5027 -1.64,-1.56396 -2.10857,-1.56396 -2.10857,0 0,1.10595 -1.21389,2.01081 -2.69754,2.01081 -2.16223,0 -2.32045,-0.67191 -0.79731,-3.38599 z m 34.11668,2.10358 c -3.05089,-1.99223 -4.48732,-7.07226 -1.71264,-6.05688 1.3052,0.47763 2.77233,2.32436 3.260301,4.10385 1.00174,3.65305 1.02017,3.62979 -1.547661,1.95303 z m -67.52183,-2.90678 c 0,-1.38243 0.31076,-2.51351 0.69057,-2.51351 0.37982,0 1.14572,1.13108 1.702,2.51351 0.55628,1.38243 0.24552,2.51351 -0.69058,2.51351 -0.9361,0 -1.70199,-1.13108 -1.70199,-2.51351 z m 56.66786,1.33094 c -2.17447,-0.39941 -3.95357,-1.50848 -3.95357,-2.4646 0,-0.95612 1.13498,-1.32306 2.52219,-0.81543 1.3872,0.50764 2.9062,0.0228 3.37556,-1.07748 0.4847,-1.13623 0.91331,-0.79392 0.9921,0.79234 0.0763,1.53603 1.12711,3.17313 2.33515,3.63798 2.5658,0.98732 0.33229,0.95647 -5.27143,-0.0729 z M 9.0071586,842.73286 c -0.59729,-0.92162 -0.29526,-1.67567 0.67117,-1.67567 0.9664304,0 2.2458304,0.75405 2.8431104,1.67567 0.59729,0.92163 0.29526,1.67568 -0.67116,1.67568 -0.96643,0 -2.2458404,-0.75405 -2.8431204,-1.67568 z m 15.2651804,-0.10473 c 0.42281,-1.20963 1.80656,-2.52921 3.075,-2.93243 1.31786,-0.41892 1.97678,0.20946 1.5375,1.46622 -0.42281,1.20962 -1.80656,2.52921 -3.075,2.93243 -1.31786,0.41892 -1.97679,-0.20946 -1.5375,-1.46622 z m 11.7464,-1.04684 c -2.10723,-2.47045 -2.03061,-2.69115 0.60715,-1.74885 1.6603,0.5931 3.48607,0.35727 4.05727,-0.5241 0.5712,-0.88138 1.7893,-1.6025 2.70688,-1.6025 0.91758,0 0.68071,1.5081 -0.52638,3.35135 -2.67498,4.08474 -3.73833,4.16615 -6.84492,0.5241 z m 38.88128,-17.28086 c 0,-0.92162 0.79072,-1.67567 1.75714,-1.67567 0.96643,0 1.75715,0.75405 1.75715,1.67567 0,0.92162 -0.79072,1.67568 -1.75715,1.67568 -0.96642,0 -1.75714,-0.75406 -1.75714,-1.67568 z m 10.81323,-0.91944 c 0.33451,-1.64562 1.61636,-3.18648 2.84856,-3.42413 1.23219,-0.23766 1.42495,-0.0473 0.42834,0.42318 -0.99661,0.47041 -1.39884,1.49282 -0.89384,2.27205 0.505,0.77922 0.0385,1.9352 -1.03654,2.56884 -1.2167,0.71711 -1.72509,0.0225 -1.34652,-1.83994 z m -65.14594,-1.87336 c 0.0933,-2.06708 0.45033,-2.32483 1.09127,-0.78787 0.80422,1.92849 1.2139,1.92849 2.63077,0 1.38733,-1.88828 1.55985,-1.86668 0.99533,0.12451 -1.03114,3.63723 -4.87607,4.17786 -4.71737,0.66328 z m 7.02857,-19.96845 c 0.0843,-1.95208 0.50068,-2.34913 1.06161,-1.0124 0.50759,1.20962 0.44516,2.65491 -0.13873,3.21172 -0.58388,0.55681 -0.99918,-0.43289 -0.92288,-2.19932 z m 13.36932,1.57094 c -2.31044,-2.20333 -1.19219,-4.34263 1.2568,-2.40439 1.70719,1.35116 2.74691,1.40135 3.3825,0.16338 0.53023,-1.03284 0.74147,-0.92972 0.50034,0.24424 -0.50226,2.4453 -3.46312,3.59565 -5.13964,1.99686 z m 7.57768,-1.43131 c 0,-1.38243 0.31076,-2.51351 0.69057,-2.51351 0.37982,0 1.14572,1.13108 1.702,2.51351 0.55628,1.38243 0.24552,2.51351 -0.69058,2.51351 -0.9361,0 -1.70199,-1.13108 -1.70199,-2.51351 z m -36.49733,-1.15203 c 0.38255,-1.09443 1.65428,-2.16896 2.82607,-2.38784 1.1718,-0.21889 1.31513,-0.0134 0.31852,0.45731 -0.99661,0.47042 -1.36507,1.54494 -0.8188,2.38784 0.54627,0.8429 0.0899,1.53256 -1.01405,1.53256 -1.104,0 -1.69428,-0.89545 -1.31174,-1.98987 z M 472.72596,762.71935 c 1.84103,-2.07365 4.60853,-3.71073 6.15,-3.63798 2.37879,0.11227 2.40404,0.27207 0.16693,1.0565 -1.44964,0.5083 -4.21714,2.1454 -6.15,3.63798 -3.48436,2.69066 -3.48578,2.68166 -0.16693,-1.0565 z m -5.53811,-18.11241 c -7.56018,-7.29013 -8.53616,-12.46867 -2.34993,-12.46867 4.77419,0 8.52341,3.71894 10.34968,10.26613 2.61914,9.38959 0.15656,10.06757 -7.99975,2.20254 z m 3.02032,-6.66014 c -2.33607,-2.68428 -6.97955,-3.34019 -6.97955,-0.98589 0,2.19946 7.81143,6.77624 8.51255,4.98755 0.33298,-0.84947 -0.35687,-2.65021 -1.533,-4.00166 z"
       id="path3347"
       inkscape:connector-curvature="0" />
  </g>
</svg>
